<svg id="Camada_1" data-name="Camada 1" xmlns="http://www.w3.org/2000/svg" viewBox="0 0 64 64"><defs><style>.cls-1{fill:#fff;}</style></defs><path id="ic_joyjet" data-name="ic joyjet" class="cls-1" d="M0,32A32,32,0,1,1,32,64,32,32,0,0,1,0,32ZM35.24,13.24c-.81-5.4-3-7.84-3.15-8-.18.18-2.37,2.64-3.15,8a19.6,19.6,0,0,0,3.15.29A17.64,17.64,0,0,0,35.24,13.24ZM32,29.52a20.75,20.75,0,0,0,3.44-.31c0-2.14,0-5.73,0-8.43h0c0-2,0-3.54,0-3.54a30.34,30.34,0,0,0-.22-3.62,20,20,0,0,1-3.19.29,18,18,0,0,1-3.2-.29,30.6,30.6,0,0,0-.22,3.62s-.07,8.22-.07,12A21.15,21.15,0,0,0,32,29.52Zm-3.86-.36-7,0,7.06-10.76Zm7.73-10.78,6.9,10.76-6.95,0Zm-3.64,13a21.43,21.43,0,0,1-3.67-.32V29.59a21.45,21.45,0,0,0,3.67.31,20.88,20.88,0,0,0,3.21-.25v1.5A20.88,20.88,0,0,1,32.25,31.4ZM10.14,42.54h6.52A4.59,4.59,0,0,0,21.28,38l-.07-6.41h3.26V39A6.68,6.68,0,0,1,24,41.22a8.85,8.85,0,0,1-3.29,3.49,8.57,8.57,0,0,1-4.91,1.11H10.14V42.54Zm43.72,6.9H47.34A11.51,11.51,0,0,1,35.82,38V31.55h3.3V39a6.84,6.84,0,0,0,.52,2.41A9.21,9.21,0,0,0,43.05,45a8.93,8.93,0,0,0,5.14,1.18h5.67Zm-43.72,0h6.52A11.52,11.52,0,0,0,28.18,38V31.57h-3.3V39a6.8,6.8,0,0,1-.52,2.41A9.2,9.2,0,0,1,21,45.06a8.74,8.74,0,0,1-5.14,1.19H10.14Zm38.07-3.59h5.67V42.56H47.36A4.59,4.59,0,0,1,42.74,38l.07-6.4H39.55V39A6.84,6.84,0,0,0,40,41.24a8.89,8.89,0,0,0,3.28,3.49A8.42,8.42,0,0,0,48.21,45.85ZM30.57,31.75a8.64,8.64,0,0,0,1.52,4.56,8.47,8.47,0,0,0,1.38-4.51l-1.18,0C31.71,31.82,31.13,31.8,30.57,31.75Z"/></svg>